<svg id="Calque_1" data-name="Calque 1" xmlns="http://www.w3.org/2000/svg" xmlns:xlink="http://www.w3.org/1999/xlink" viewBox="0 0 108.49 23.31"><defs><style>.cls-1,.cls-2{fill:#fff;}.cls-2{fill-rule:evenodd;}.cls-3{fill:url(#Dégradé_sans_nom_30);}.cls-4{fill:url(#Dégradé_sans_nom_39);}.cls-5{fill:url(#Dégradé_sans_nom_43);}.cls-6{fill:url(#Dégradé_sans_nom_43-2);}</style><radialGradient id="Dégradé_sans_nom_30" cx="48.96" cy="22.24" r="62.06" gradientUnits="userSpaceOnUse"><stop offset="0.14" stop-color="#fff"/><stop offset="0.44" stop-color="#ecc02e"/><stop offset="1" stop-color="#a31e1e"/></radialGradient><radialGradient id="Dégradé_sans_nom_39" cx="11.22" cy="11.85" r="8.67" gradientUnits="userSpaceOnUse"><stop offset="0" stop-color="#fdf6d9"/><stop offset="0.39" stop-color="#ecc02e"/><stop offset="0.54" stop-color="#d69029"/><stop offset="0.87" stop-color="#a31e1e"/></radialGradient><radialGradient id="Dégradé_sans_nom_43" cx="13.06" cy="10.91" r="11.75" gradientUnits="userSpaceOnUse"><stop offset="0.14" stop-color="#fff"/><stop offset="0.44" stop-color="#ecc02e"/><stop offset="0.95" stop-color="#a31e1e"/></radialGradient><radialGradient id="Dégradé_sans_nom_43-2" cx="11.46" cy="11.85" r="11.21" xlink:href="#Dégradé_sans_nom_43"/></defs><path class="cls-1" d="M27.85,4.19A8.73,8.73,0,0,1,29.8,4a3.8,3.8,0,0,1,2.75.88c.85.76,1.29,2.07,1.29,4s-.52,3.42-1.38,4.18a4.15,4.15,0,0,1-3,.95,15.59,15.59,0,0,1-1.59-.1Zm1.92,8.21a1.27,1.27,0,0,0,.34,0c.93,0,1.73-.91,1.73-3.64,0-2-.52-3.25-1.68-3.25a1.23,1.23,0,0,0-.39,0Z"/><path class="cls-1" d="M38.94,9.59H36.68v2.66h2.56v1.68H34.76V4h4.3V5.71H36.68V8h2.26Z"/><path class="cls-1" d="M46.59,10.47c-.05-.94-.12-2.21-.09-3.28h0c-.17,1.06-.44,2.28-.63,3L45,13.77H43.61l-.82-3.48c-.19-.79-.46-2-.61-3.1h0c0,1.07-.09,2.32-.15,3.31l-.16,3.43H40.17L40.89,4h2l.79,3.58c.28,1.25.53,2.35.7,3.46h0c.15-1.1.37-2.21.63-3.46L45.85,4h2l.6,9.89H46.76Z"/><path class="cls-1" d="M56,13a2.5,2.5,0,0,0,1.29.41,1.81,1.81,0,0,0,1.83-2A3,3,0,0,0,57.8,9.09c-.43-.37-1.87-1.22-1.87-2.73A2.3,2.3,0,0,1,58.24,4a2.22,2.22,0,0,1,1.27.37l-.25.54a2,2,0,0,0-1.13-.34,1.56,1.56,0,0,0-1.55,1.66c0,1.22.64,1.66,1.51,2.33a3.59,3.59,0,0,1,1.67,2.87A2.45,2.45,0,0,1,57.3,14a2.72,2.72,0,0,1-1.53-.46Z"/><path class="cls-1" d="M64.94,13.74a3,3,0,0,1-1.38.28c-1.55,0-3.05-1.24-3.05-4.93,0-4,1.85-5.14,3.2-5.14a2.25,2.25,0,0,1,1.16.24l-.21.55a2.16,2.16,0,0,0-1-.22c-1,0-2.44,1.09-2.44,4.45s1.25,4.47,2.5,4.47a2.23,2.23,0,0,0,1.1-.25Z"/><path class="cls-1" d="M66.81,4V8.46h3.24V4h.63v9.89h-.63V9H66.81v4.92h-.64V4Z"/><path class="cls-1" d="M73.12,10.52l-.8,3.41h-.61L74,4h.6L77,13.93h-.64l-.79-3.41Zm2.3-.54-.63-2.79c-.18-.76-.31-1.46-.44-2.25h-.06c-.12.8-.26,1.54-.43,2.27L73.25,10Z"/><path class="cls-1" d="M78,13.93V4h.64l2,5.1c.48,1.25,1,2.59,1.39,3.79h0c-.1-1.88-.1-2.88-.1-4.52V4h.6v9.89H82L79.84,8.56A38,38,0,0,1,78.56,5h0c.1,1.52.1,2.61.1,4.79v4.17Z"/><path class="cls-1" d="M84.08,4.19A3.48,3.48,0,0,1,85.33,4a2.93,2.93,0,0,1,2,.66c.72.6,1.36,1.86,1.36,4,0,2.42-.56,3.53-1.07,4.16A3.13,3.13,0,0,1,85.14,14a4.37,4.37,0,0,1-1.06-.09Zm.63,9.19a3.29,3.29,0,0,0,.49,0c1.43,0,2.89-.89,2.89-4.65,0-2.77-.91-4.22-2.76-4.22a4,4,0,0,0-.62.06Z"/><path class="cls-1" d="M93.1,9H90.49v4.36h3v.56H89.86V4H93.3V4.6H90.49V8.46H93.1Z"/><path class="cls-1" d="M94.69,4h.63v9.34h2.93v.55H94.69Z"/><path class="cls-1" d="M102.66,9H100v4.36h3v.56H99.41V4h3.44V4.6H100V8.46h2.62Z"/><path class="cls-1" d="M104.24,4.19A3.92,3.92,0,0,1,105.58,4a2.51,2.51,0,0,1,2,.69,2.63,2.63,0,0,1,.65,1.84,2.59,2.59,0,0,1-1.63,2.6v0c.76.19,1.17.94,1.41,2.38a13.74,13.74,0,0,0,.52,2.39h-.63a15.59,15.59,0,0,1-.54-2.5c-.25-1.43-.75-2-1.91-2h-.54v4.53h-.63Zm.63,4.71h.56a2.06,2.06,0,0,0,2.09-2.25c0-1.32-.54-2.11-2-2.11a2.64,2.64,0,0,0-.67.06Z"/><polygon class="cls-2" points="51.11 13.93 53.02 13.93 53.02 10.17 55.63 4.04 53.69 4.04 52.17 8.05 50.74 4.04 48.66 4.04 51.11 10.17 51.11 13.93"/><path class="cls-3" d="M66.16,18.49c0-.34,0-.58,0-.8h.54l0,.47h0a.74.74,0,0,1,.67-.53l.15,0v.59l-.18,0a.55.55,0,0,0-.56.47,1.23,1.23,0,0,0,0,.2v1.29h-.63Z"/><path class="cls-3" d="M68.48,19.11a.67.67,0,0,0,.76.64,1.84,1.84,0,0,0,.69-.11l.1.43a2.29,2.29,0,0,1-.87.16A1.18,1.18,0,0,1,67.87,19a1.23,1.23,0,0,1,1.22-1.34,1.08,1.08,0,0,1,1.07,1.21,1.65,1.65,0,0,1,0,.27Zm1.09-.44a.53.53,0,0,0-.51-.61.61.61,0,0,0-.58.61Z"/><path class="cls-3" d="M71.22,19.11c0,.45.36.64.76.64a1.92,1.92,0,0,0,.69-.11l.09.43a2.23,2.23,0,0,1-.86.16A1.18,1.18,0,0,1,70.61,19a1.23,1.23,0,0,1,1.22-1.34,1.08,1.08,0,0,1,1.07,1.21,1.65,1.65,0,0,1,0,.27Zm1.09-.44a.54.54,0,0,0-.52-.61.61.61,0,0,0-.57.61Z"/><path class="cls-3" d="M73.48,19.6a1.34,1.34,0,0,0,.64.18c.27,0,.4-.11.4-.28s-.11-.25-.41-.36c-.49-.17-.69-.43-.69-.73a.84.84,0,0,1,.94-.78,1.4,1.4,0,0,1,.66.15l-.12.44a1.16,1.16,0,0,0-.53-.14c-.22,0-.34.11-.34.26s.11.24.43.35.66.39.66.76-.35.78-1,.78a1.48,1.48,0,0,1-.75-.18Z"/><path class="cls-3" d="M76.19,19.11a.67.67,0,0,0,.76.64,1.88,1.88,0,0,0,.69-.11l.1.43a2.33,2.33,0,0,1-.87.16A1.18,1.18,0,0,1,75.58,19a1.23,1.23,0,0,1,1.22-1.34,1.08,1.08,0,0,1,1.07,1.21,1.65,1.65,0,0,1,0,.27Zm1.09-.44a.54.54,0,0,0-.52-.61.61.61,0,0,0-.57.61Z"/><path class="cls-3" d="M78.48,18.43c0-.29,0-.53,0-.74H79l0,.37h0a.91.91,0,0,1,.79-.43c.44,0,.89.28.89,1.07v1.48h-.63V18.77c0-.36-.14-.63-.48-.63a.53.53,0,0,0-.49.37.66.66,0,0,0,0,.21v1.46h-.63Z"/><path class="cls-3" d="M84.6,19.58a5.21,5.21,0,0,0,0,.6h-.56l0-.28h0a.9.9,0,0,1-.74.33.74.74,0,0,1-.78-.74c0-.63.56-.94,1.48-.94v0c0-.16-.07-.43-.51-.43a1.31,1.31,0,0,0-.67.18l-.12-.41a1.82,1.82,0,0,1,.9-.22.93.93,0,0,1,1,1.05ZM84,19c-.44,0-.87.09-.87.47a.33.33,0,0,0,.36.35.5.5,0,0,0,.49-.34.34.34,0,0,0,0-.14Z"/><path class="cls-3" d="M86.9,17.69l.26,1.13c.06.26.11.53.16.81h0c0-.28.13-.55.2-.81l.33-1.13h.51l.31,1.1c.08.29.14.56.2.84h0c0-.28.1-.55.16-.84l.28-1.1H90l-.79,2.49h-.58l-.29-1a6.24,6.24,0,0,1-.19-.8h0a7.26,7.26,0,0,1-.19.8l-.32,1H87l-.73-2.49Z"/><path class="cls-3" d="M92.68,19.43c0,.3,0,.54,0,.75h-.55l0-.38h0a.91.91,0,0,1-.8.43c-.45,0-.87-.27-.87-1.08V17.69h.63V19c0,.42.13.68.47.68a.53.53,0,0,0,.48-.34.54.54,0,0,0,0-.19v-1.5h.63Z"/><path class="cls-3" d="M93.91,19.11c0,.45.36.64.76.64a1.92,1.92,0,0,0,.69-.11l.09.43a2.25,2.25,0,0,1-.87.16A1.18,1.18,0,0,1,93.3,19a1.23,1.23,0,0,1,1.22-1.34,1.08,1.08,0,0,1,1.07,1.21,1.65,1.65,0,0,1,0,.27ZM95,18.67a.54.54,0,0,0-.52-.61.6.6,0,0,0-.57.61Z"/><path class="cls-3" d="M96.2,16.55h.63v3.63H96.2Z"/><path class="cls-3" d="M97.69,20.18v-2h-.34v-.47h.34v-.12a1.06,1.06,0,0,1,1.2-1.08,1.53,1.53,0,0,1,.69.16l-.14.48a1.1,1.1,0,0,0-.55-.14.53.53,0,0,0-.58.6v.1H99.8v2.49h-.64v-2h-.85v2Z"/><path class="cls-3" d="M100.57,16.55h.64v3.63h-.64Z"/><path class="cls-3" d="M102,16.55h.63v3.63H102Z"/><path class="cls-3" d="M103.85,19.11a.67.67,0,0,0,.76.64,1.84,1.84,0,0,0,.69-.11l.1.43a2.33,2.33,0,0,1-.87.16A1.18,1.18,0,0,1,103.24,19a1.23,1.23,0,0,1,1.22-1.34,1.08,1.08,0,0,1,1.07,1.21,1.65,1.65,0,0,1,0,.27Zm1.09-.44a.53.53,0,0,0-.51-.61.61.61,0,0,0-.58.61Z"/><path class="cls-3" d="M106.14,18.43c0-.29,0-.53,0-.74h.55l0,.37h0a.91.91,0,0,1,.79-.43c.44,0,.89.28.89,1.07v1.48h-.63V18.77c0-.36-.14-.63-.48-.63a.53.53,0,0,0-.49.37.68.68,0,0,0,0,.21v1.46h-.64Z"/><path class="cls-4" d="M18,11.8a6.58,6.58,0,0,0-1-5.13,5.1,5.1,0,0,0-2-1.58,13.9,13.9,0,0,0,.72,3.67l1.23,3.63A57.76,57.76,0,0,0,9.2,7.33c-3.67-1.9-6.15-2.1-6.57-1s.56,3,4.26,5.83A40.4,40.4,0,0,1,14,19c.2-.22.39-.45.58-.69A16,16,0,0,0,18,11.8Z"/><path class="cls-5" d="M11.79,0a11.75,11.75,0,0,0-7,2.33,20.81,20.81,0,0,1,3.9,1.1c2.8,1.1,2.94,1.44,2.94,1.44s.07-3.77,3.59-3.11S21.73,5.91,21.45,11s-3.89,9-4.55,9.74c-.46.53-1.77,1.83-2.51,2.57A11.8,11.8,0,0,0,11.79,0Z"/><path class="cls-6" d="M4.89,14.83A26.43,26.43,0,0,1,.1,10.24,11.46,11.46,0,0,0,0,11.8,11.79,11.79,0,0,0,9,23.24a29.81,29.81,0,0,0,2.61-1.9A44.08,44.08,0,0,0,4.89,14.83Z"/></svg>