<?xml version="1.0" encoding="UTF-8"?><svg id="Demy" xmlns="http://www.w3.org/2000/svg" viewBox="0 0 339.76 73.88"><defs><style>.cls-1,.cls-2{fill:#ffbd00;}.cls-3,.cls-4{fill:#747373;}.cls-4,.cls-2{fill-rule:evenodd;}</style></defs><path class="cls-3" d="m87.23,13.11c1.52-.37,3.72-.6,6.11-.6,3.91,0,6.62.92,8.59,2.76,2.66,2.39,4.04,6.48,4.04,12.5s-1.61,10.71-4.32,13.09c-2.07,2.02-5.14,2.99-9.46,2.99-1.88,0-3.76-.19-4.96-.32V13.11Zm6.02,25.72c.28.09.73.09,1.06.09,2.9,0,5.42-2.85,5.42-11.39,0-6.34-1.65-10.2-5.28-10.2-.41,0-.83,0-1.19.13v21.36Z"/><path class="cls-3" d="m121.96,30.02h-7.08v8.36h7.99v5.24h-14.01V12.65h13.46v5.24h-7.44v7.12h7.08v5.01Z"/><path class="cls-3" d="m145.89,32.78c-.14-2.94-.37-6.89-.28-10.25h-.14c-.55,3.3-1.38,7.12-1.97,9.51l-2.66,11.07h-4.27l-2.57-10.89c-.6-2.48-1.42-6.34-1.88-9.69h-.14c-.09,3.35-.27,7.26-.46,10.34l-.5,10.75h-5.2l2.25-30.96h6.34l2.48,11.21c.87,3.9,1.65,7.35,2.2,10.84h.09c.46-3.45,1.15-6.94,1.97-10.84l2.44-11.21h6.34l1.88,30.96h-5.37l-.55-10.84Z"/><path class="cls-3" d="m175.34,40.82c.92.64,2.62,1.28,4.04,1.28,3.49,0,5.74-2.53,5.74-6.34,0-3.26-1.83-5.37-4.13-7.3-1.34-1.15-5.84-3.81-5.84-8.54s3.26-7.54,7.21-7.54c1.84,0,3.35.64,4,1.15l-.78,1.7c-.73-.55-2.02-1.05-3.54-1.05-3.3,0-4.87,2.76-4.87,5.19,0,3.81,2.02,5.19,4.73,7.3,3.49,2.76,5.24,5.42,5.24,8.96,0,5.14-3.49,8.27-7.72,8.27-1.88,0-4-.74-4.78-1.43l.69-1.65Z"/><path class="cls-3" d="m203.37,43.02c-1.01.55-2.48.87-4.32.87-4.87,0-9.56-3.86-9.56-15.44,0-12.54,5.79-16.08,10.01-16.08,1.7,0,2.99.32,3.63.74l-.64,1.75c-.78-.37-1.52-.69-3.3-.69-3.22,0-7.62,3.4-7.62,13.92s3.9,14.01,7.81,14.01c1.51,0,2.71-.37,3.44-.78l.55,1.7Z"/><path class="cls-3" d="m209.21,12.65v13.83h10.15v-13.83h1.97v30.96h-1.97v-15.39h-10.15v15.39h-1.98V12.65h1.98Z"/><path class="cls-3" d="m228.97,32.96l-2.48,10.66h-1.92l7.3-30.96h1.89l7.4,30.96h-2.02l-2.48-10.66h-7.67Zm7.21-1.7l-1.97-8.73c-.55-2.39-.96-4.6-1.38-7.08h-.19c-.37,2.53-.83,4.83-1.33,7.12l-1.93,8.68h6.79Z"/><path class="cls-3" d="m244.37,43.62V12.65h1.98l6.24,15.98c1.52,3.91,3.17,8.09,4.36,11.86h.09c-.32-5.88-.32-9-.32-14.15v-13.69h1.88v30.96h-1.98l-6.61-16.81c-1.38-3.44-2.67-6.71-4-11.25h-.09c.32,4.77.32,8.18.32,15.02v13.05h-1.88Z"/><path class="cls-3" d="m263.31,13.11c1.24-.46,2.53-.6,3.9-.6,2.85,0,4.91.74,6.43,2.07,2.25,1.89,4.27,5.83,4.27,12.59,0,7.58-1.78,11.07-3.35,13.05-1.93,2.43-4.87,3.54-7.95,3.54-1.15,0-2.39-.05-3.3-.27V13.11Zm1.98,28.8c.64.09,1.19.09,1.51.09,4.5,0,9.05-2.8,9.05-14.56,0-8.69-2.85-13.23-8.64-13.23-.65,0-1.38.09-1.93.18v27.52Z"/><path class="cls-3" d="m291.57,28.23h-8.17v13.64h9.37v1.75h-11.35V12.65h10.75v1.74h-8.78v12.08h8.17v1.75Z"/><path class="cls-3" d="m296.54,12.65h1.97v29.26h9.19v1.7h-11.16V12.65Z"/><path class="cls-3" d="m321.48,28.23h-8.18v13.64h9.37v1.75h-11.35V12.65h10.75v1.74h-8.77v12.08h8.18v1.75Z"/><path class="cls-3" d="m326.44,13.11c1.24-.46,2.75-.6,4.18-.6,2.89,0,4.77.74,6.15,2.16,1.33,1.42,2.02,3.49,2.02,5.79,0,4.36-2.02,6.71-5.1,8.13v.09c2.38.6,3.68,2.94,4.41,7.44.78,4.73,1.29,6.62,1.65,7.49h-1.97c-.46-.97-1.02-3.77-1.71-7.81-.78-4.5-2.33-6.38-5.97-6.38h-1.7v14.19h-1.98V13.11Zm1.98,14.75h1.74c3.82,0,6.57-2.71,6.57-7.03s-1.7-6.61-6.2-6.61c-.83,0-1.56.04-2.11.18v13.46Z"/><polygon class="cls-4" points="160.06 43.62 166.04 43.62 166.04 31.84 174.22 12.64 168.12 12.64 163.38 25.23 158.91 12.64 152.37 12.64 160.06 31.84 160.06 43.62"/><path class="cls-1" d="m207.18,57.91c0-1.06-.02-1.81-.06-2.51h1.71l.06,1.49h.06c.38-1.1,1.3-1.67,2.13-1.67.19,0,.3.02.46.05v1.86c-.16-.03-.34-.06-.58-.06-.94,0-1.58.61-1.76,1.49-.03.18-.06.38-.06.61v4.03h-1.97v-5.28Z"/><path class="cls-1" d="m214.45,59.84c.05,1.41,1.15,2.02,2.4,2.02.91,0,1.57-.13,2.16-.35l.29,1.36c-.67.27-1.6.5-2.72.5-2.53,0-4.02-1.57-4.02-3.95,0-2.16,1.31-4.19,3.81-4.19s3.36,2.08,3.36,3.79c0,.37-.03.66-.06.83h-5.22Zm3.42-1.38c.02-.72-.3-1.91-1.62-1.91-1.22,0-1.73,1.1-1.81,1.91h3.42Z"/><path class="cls-1" d="m223.02,59.84c.05,1.41,1.15,2.02,2.4,2.02.91,0,1.57-.13,2.16-.35l.29,1.36c-.67.27-1.6.5-2.72.5-2.53,0-4.02-1.57-4.02-3.95,0-2.16,1.31-4.19,3.81-4.19s3.36,2.08,3.36,3.79c0,.37-.03.66-.06.83h-5.22Zm3.42-1.38c.02-.72-.3-1.91-1.62-1.91-1.22,0-1.73,1.1-1.81,1.91h3.42Z"/><path class="cls-1" d="m230.11,61.38c.45.27,1.3.56,2,.56.86,0,1.25-.35,1.25-.87s-.32-.8-1.28-1.14c-1.52-.53-2.16-1.36-2.14-2.27,0-1.38,1.14-2.45,2.95-2.45.86,0,1.62.22,2.06.46l-.38,1.39c-.34-.19-.96-.45-1.65-.45s-1.09.34-1.09.82.37.74,1.36,1.09c1.41.51,2.07,1.23,2.08,2.39,0,1.41-1.1,2.45-3.17,2.45-.94,0-1.79-.24-2.37-.56l.38-1.42Z"/><path class="cls-1" d="m238.59,59.84c.05,1.41,1.15,2.02,2.4,2.02.91,0,1.57-.13,2.16-.35l.29,1.36c-.67.27-1.6.5-2.72.5-2.53,0-4.02-1.57-4.02-3.95,0-2.16,1.31-4.19,3.81-4.19s3.36,2.08,3.36,3.79c0,.37-.03.66-.06.83h-5.22Zm3.42-1.38c.02-.72-.3-1.91-1.62-1.91-1.22,0-1.73,1.1-1.81,1.91h3.42Z"/><path class="cls-1" d="m245.77,57.71c0-.9-.02-1.65-.06-2.32h1.73l.1,1.17h.05c.34-.61,1.18-1.34,2.48-1.34,1.36,0,2.77.88,2.77,3.35v4.63h-1.97v-4.4c0-1.12-.42-1.97-1.49-1.97-.78,0-1.33.56-1.54,1.15-.06.18-.08.42-.08.64v4.58h-1.98v-5.47Z"/><path class="cls-1" d="m264.93,61.31c0,.7.03,1.39.11,1.87h-1.78l-.13-.86h-.05c-.48.61-1.3,1.04-2.31,1.04-1.57,0-2.45-1.14-2.45-2.32,0-1.97,1.74-2.96,4.62-2.95v-.13c0-.51-.21-1.36-1.58-1.36-.77,0-1.57.24-2.1.58l-.38-1.28c.58-.35,1.58-.69,2.82-.69,2.5,0,3.22,1.58,3.22,3.28v2.82Zm-1.92-1.94c-1.39-.03-2.72.27-2.72,1.46,0,.77.5,1.12,1.12,1.12.79,0,1.36-.51,1.54-1.07.05-.14.06-.3.06-.43v-1.07Z"/><path class="cls-1" d="m272.14,55.39l.82,3.54c.18.83.35,1.68.5,2.53h.03c.16-.85.42-1.71.64-2.51l1.01-3.55h1.6l.98,3.46c.24.91.45,1.76.62,2.61h.03c.13-.85.3-1.7.51-2.61l.86-3.46h1.94l-2.45,7.79h-1.83l-.93-3.17c-.24-.82-.42-1.55-.59-2.5h-.03c-.16.96-.37,1.73-.59,2.5l-.99,3.17h-1.84l-2.31-7.79h2.02Z"/><path class="cls-1" d="m290.24,60.85c0,.93.03,1.7.06,2.34h-1.73l-.1-1.18h-.03c-.34.56-1.1,1.36-2.5,1.36s-2.72-.85-2.72-3.39v-4.58h1.97v4.24c0,1.3.42,2.13,1.46,2.13.78,0,1.3-.56,1.5-1.06.06-.18.11-.38.11-.61v-4.71h1.97v5.46Z"/><path class="cls-1" d="m294.08,59.84c.05,1.41,1.15,2.02,2.4,2.02.91,0,1.57-.13,2.16-.35l.29,1.36c-.67.27-1.6.5-2.72.5-2.53,0-4.02-1.57-4.02-3.95,0-2.16,1.31-4.19,3.81-4.19s3.36,2.08,3.36,3.79c0,.37-.03.66-.06.83h-5.22Zm3.42-1.38c.02-.72-.3-1.91-1.62-1.91-1.22,0-1.73,1.1-1.81,1.91h3.42Z"/><path class="cls-1" d="m301.26,51.82h1.98v11.36h-1.98v-11.36Z"/><path class="cls-1" d="m305.92,63.19v-6.32h-1.06v-1.47h1.06v-.37c0-2.1,1.46-3.38,3.78-3.38.77,0,1.7.21,2.15.5l-.43,1.49c-.37-.21-.98-.42-1.71-.42-1.38,0-1.82.83-1.82,1.86v.32h4.66v7.79h-1.99v-6.32h-2.66v6.32h-1.97Z"/><path class="cls-1" d="m314.96,51.82h1.98v11.36h-1.98v-11.36Z"/><path class="cls-1" d="m319.39,51.82h1.98v11.36h-1.98v-11.36Z"/><path class="cls-1" d="m325.21,59.84c.05,1.41,1.15,2.02,2.4,2.02.91,0,1.57-.13,2.16-.35l.29,1.36c-.67.27-1.6.5-2.72.5-2.53,0-4.02-1.57-4.02-3.95,0-2.16,1.31-4.19,3.81-4.19s3.36,2.08,3.36,3.79c0,.37-.03.66-.06.83h-5.22Zm3.42-1.38c.02-.72-.3-1.91-1.62-1.91-1.22,0-1.73,1.1-1.81,1.91h3.42Z"/><path class="cls-1" d="m332.4,57.71c0-.9-.02-1.65-.06-2.32h1.73l.1,1.17h.05c.34-.61,1.18-1.34,2.48-1.34,1.36,0,2.77.88,2.77,3.35v4.63h-1.97v-4.4c0-1.12-.42-1.97-1.49-1.97-.78,0-1.33.56-1.54,1.15-.06.18-.08.42-.08.64v4.58h-1.98v-5.47Z"/><path class="cls-2" d="m43.94,59.54c.63-.71,1.23-1.43,1.81-2.16,7.06-9,9.25-14.87,10.62-20.44s-.47-12.66-3.25-16.06c-3.11-3.81-6.31-4.94-6.31-4.94,0,0,.17,5.35,2.25,11.5,2,5.91,3.87,11.37,3.87,11.37,0,0-12.62-9.94-24.12-15.87-11.5-5.94-19.25-6.56-20.56-3.06s1.75,9.25,13.31,18.25c11.11,8.65,19.11,16.9,22.38,21.41Z"/><path class="cls-1" d="m14.91,7.29C21.06,2.71,28.68,0,36.94,0c20.4,0,36.94,16.54,36.94,36.94,0,17.61-12.34,32.35-28.83,36.05,2.34-2.3,6.44-6.38,7.89-8.04,2.06-2.37,13.37-14.56,14.25-30.5.87-15.94-8.62-26.87-19.62-28.94-11-2.06-11.25,9.75-11.25,9.75,0,0-.44-1.06-9.19-4.5-4.99-1.96-9.37-2.97-12.22-3.47Z"/><path class="cls-1" d="m28.02,72.79C11.92,68.81,0,54.27,0,36.94c0-1.65.11-3.27.32-4.87,2.48,3.13,7.38,8.64,15,14.37,10.09,7.6,18.77,17.83,20.89,20.4-3.48,2.84-6.62,4.95-8.17,5.95Z"/></svg>